<svg width="56" height="56" viewBox="0 0 56 56" fill="none" xmlns="http://www.w3.org/2000/svg">
<rect x="4" y="4" width="48" height="48" rx="24" fill="#FEF0C7"/>
<path d="M28 37L27.8999 36.8499C27.2053 35.808 26.858 35.287 26.3991 34.9098C25.9929 34.5759 25.5248 34.3254 25.0216 34.1726C24.4533 34 23.8271 34 22.5748 34H21.2C20.0799 34 19.5198 34 19.092 33.782C18.7157 33.5903 18.4097 33.2843 18.218 32.908C18 32.4802 18 31.9201 18 30.8V22.2C18 21.0799 18 20.5198 18.218 20.092C18.4097 19.7157 18.7157 19.4097 19.092 19.218C19.5198 19 20.0799 19 21.2 19H21.6C23.8402 19 24.9603 19 25.816 19.436C26.5686 19.8195 27.1805 20.4314 27.564 21.184C28 22.0397 28 23.1598 28 25.4M28 37V25.4M28 37L28.1001 36.8499C28.7947 35.808 29.142 35.287 29.6009 34.9098C30.0071 34.5759 30.4752 34.3254 30.9784 34.1726C31.5467 34 32.1729 34 33.4252 34H34.8C35.9201 34 36.4802 34 36.908 33.782C37.2843 33.5903 37.5903 33.2843 37.782 32.908C38 32.4802 38 31.9201 38 30.8V22.2C38 21.0799 38 20.5198 37.782 20.092C37.5903 19.7157 37.2843 19.4097 36.908 19.218C36.4802 19 35.9201 19 34.8 19H34.4C32.1598 19 31.0397 19 30.184 19.436C29.4314 19.8195 28.8195 20.4314 28.436 21.184C28 22.0397 28 23.1598 28 25.4" stroke="#DC6803" stroke-width="2" stroke-linecap="round" stroke-linejoin="round"/>
<rect x="4" y="4" width="48" height="48" rx="24" stroke="#FFFAEB" stroke-width="8"/>
</svg>
