<svg width="56" height="56" viewBox="0 0 56 56" fill="none" xmlns="http://www.w3.org/2000/svg">
<rect x="4" y="4" width="48" height="48" rx="24" fill="#FEF0C7"/>
<path d="M22 36.0872H24.6103C24.9506 36.0872 25.2889 36.1277 25.6188 36.2087L28.3769 36.8789C28.9753 37.0247 29.5988 37.0389 30.2035 36.9214L33.253 36.3281C34.0585 36.1712 34.7996 35.7855 35.3803 35.2205L37.5379 33.1217C38.154 32.5234 38.154 31.5524 37.5379 30.9531C36.9832 30.4135 36.1047 30.3527 35.4771 30.8103L32.9626 32.6449C32.6025 32.9081 32.1643 33.0498 31.7137 33.0498H29.2855L30.8311 33.0498C31.7022 33.0498 32.4079 32.3633 32.4079 31.5159V31.2092C32.4079 30.5055 31.9156 29.892 31.2141 29.7219L28.8286 29.1418C28.4404 29.0476 28.0428 29 27.6431 29C26.6783 29 24.9319 29.7988 24.9319 29.7988L22 31.0249M18 30.6L18 36.4C18 36.9601 18 37.2401 18.109 37.454C18.2049 37.6422 18.3578 37.7951 18.546 37.891C18.7599 38 19.0399 38 19.6 38H20.4C20.9601 38 21.2401 38 21.454 37.891C21.6422 37.7952 21.7951 37.6422 21.891 37.454C22 37.2401 22 36.9601 22 36.4V30.6C22 30.04 22 29.7599 21.891 29.546C21.7951 29.3579 21.6422 29.2049 21.454 29.109C21.2401 29 20.9601 29 20.4 29H19.6C19.0399 29 18.7599 29 18.546 29.109C18.3578 29.2049 18.2049 29.3579 18.109 29.546C18 29.7599 18 30.04 18 30.6ZM33.1914 19.5923C32.5946 18.3434 31.2186 17.6818 29.8804 18.3204C28.5423 18.959 27.9722 20.4734 28.5325 21.8028C28.8787 22.6245 29.8707 24.22 30.5781 25.319C30.8394 25.7251 30.9701 25.9282 31.161 26.0469C31.3247 26.1488 31.5297 26.2037 31.7224 26.1974C31.9471 26.1899 32.1618 26.0794 32.5911 25.8584C33.7532 25.2603 35.4101 24.3746 36.1208 23.8361C37.2707 22.9649 37.5556 21.3636 36.6947 20.1463C35.8337 18.9289 34.3327 18.8091 33.1914 19.5923Z" stroke="#DC6803" stroke-width="2" stroke-linecap="round" stroke-linejoin="round"/>
<rect x="4" y="4" width="48" height="48" rx="24" stroke="#FFFAEB" stroke-width="8"/>
</svg>
