<svg width="56" height="56" viewBox="0 0 56 56" fill="none" xmlns="http://www.w3.org/2000/svg">
<rect x="4" y="4" width="48" height="48" rx="24" fill="#FEF0C7"/>
<path d="M25 37V29.6C25 29.0399 25 28.7599 25.109 28.546C25.2049 28.3578 25.3579 28.2049 25.546 28.109C25.7599 28 26.04 28 26.6 28H29.4C29.9601 28 30.2401 28 30.454 28.109C30.6422 28.2049 30.7951 28.3578 30.891 28.546C31 28.7599 31 29.0399 31 29.6V37M18 25.5L27.04 18.72C27.3843 18.4618 27.5564 18.3327 27.7454 18.2829C27.9123 18.239 28.0877 18.239 28.2546 18.2829C28.4436 18.3327 28.6157 18.4618 28.96 18.72L38 25.5M20 24V33.8C20 34.9201 20 35.4802 20.218 35.908C20.4097 36.2843 20.7157 36.5903 21.092 36.782C21.5198 37 22.0799 37 23.2 37H32.8C33.9201 37 34.4802 37 34.908 36.782C35.2843 36.5903 35.5903 36.2843 35.782 35.908C36 35.4802 36 34.9201 36 33.8V24L29.92 19.44C29.2315 18.9236 28.8872 18.6654 28.5091 18.5659C28.1754 18.478 27.8246 18.478 27.4909 18.5659C27.1128 18.6654 26.7685 18.9236 26.08 19.44L20 24Z" stroke="#DC6803" stroke-width="2" stroke-linecap="round" stroke-linejoin="round"/>
<rect x="4" y="4" width="48" height="48" rx="24" stroke="#FFFAEB" stroke-width="8"/>
</svg>
