<svg width="56" height="56" viewBox="0 0 56 56" fill="none" xmlns="http://www.w3.org/2000/svg">
<rect x="4" y="4" width="48" height="48" rx="24" fill="#FEF0C7"/>
<path d="M24 37H32M28 33V37M22.8 33H33.2C34.8802 33 35.7202 33 36.362 32.673C36.9265 32.3854 37.3854 31.9265 37.673 31.362C38 30.7202 38 29.8802 38 28.2V23.8C38 22.1198 38 21.2798 37.673 20.638C37.3854 20.0735 36.9265 19.6146 36.362 19.327C35.7202 19 34.8802 19 33.2 19H22.8C21.1198 19 20.2798 19 19.638 19.327C19.0735 19.6146 18.6146 20.0735 18.327 20.638C18 21.2798 18 22.1198 18 23.8V28.2C18 29.8802 18 30.7202 18.327 31.362C18.6146 31.9265 19.0735 32.3854 19.638 32.673C20.2798 33 21.1198 33 22.8 33Z" stroke="#DC6803" stroke-width="2" stroke-linecap="round" stroke-linejoin="round"/>
<rect x="4" y="4" width="48" height="48" rx="24" stroke="#FFFAEB" stroke-width="8"/>
</svg>
